#!OML:ASF X:\für Bonn\!DataBase\2005_08_10_Bjorn_Final\c3d\bjorn.ASF
:FULLY-SPECIFIED
:DEGREES
245
root -7.2875 17.7904 10.1387 172.591 52.3874 -544.133
lowerback 6.3901 -5.41012 6.92549
upperback 18.1238 -5.36306 0.837871
thorax 16.1354 -0.752078 -2.93064
lowerneck 8.63016 5.7092 1.61382
upperneck -10.7994 6.75343 -11.995
head -4.16098 4.08437 -4.36076
rclavicle 1.98785e-014 -6.59965e-014
rhumerus -16.1805 -17.2063 -86.6239
rradius 70.5943
rwrist 2.17394
rhand -28.7255 19.77
rfingers 7.12502
rthumb -2.08656 -10.1995
lclavicle 1.98785e-014 -6.59965e-014
lhumerus -11.2242 -5.00763 84.8565
lradius 59.3441
lwrist -20.0137
lhand -48.8653 -19.1828
lfingers 7.12502
lthumb -21.4997 9.64407
rfemur -29.6801 -5.62175 10.2628
rtibia 54.5059
rfoot -15.9919 16.2904
rtoes -12.6636
lfemur 7.37157 3.72664 -8.59976
ltibia 53.2546
lfoot -0.0647794 8.98768
ltoes -16.4842
246
root -7.19402 17.802 10.1351 172.624 52.2083 -544.052
lowerback 6.59436 -5.42145 7.01207
upperback 18.1299 -5.34355 0.841126
thorax 16.009 -0.730558 -2.9578
lowerneck 8.61943 5.735 1.68728
upperneck -10.8616 6.78001 -12.1778
head -4.16655 4.10999 -4.43205
rclavicle 2.14687e-014 -7.15625e-015
rhumerus -16.2739 -17.2527 -86.6
rradius 70.5229
rwrist 2.13413
rhand -28.7278 19.7387
rfingers 7.12502
rthumb -2.08883 -10.2308
lclavicle 2.14687e-014 -7.15625e-015
lhumerus -11.4749 -4.82079 84.7307
lradius 59.2337
lwrist -20.0196
lhand -48.9018 -19.2525
lfingers 7.12502
lthumb -21.5347 9.57033
rfemur -29.3121 -5.52331 10.4588
rtibia 54.5312
rfoot -16.4442 16.0539
rtoes -12.6941
lfemur 6.34403 3.61635 -8.422
ltibia 54.984
lfoot 1.26799 9.3301
ltoes -17.6324
247
root -7.10397 17.8127 10.131 172.595 52.0444 -544.037
lowerback 6.7998 -5.41622 7.04968
upperback 18.1289 -5.30182 0.845664
thorax 15.879 -0.70659 -2.95639
lowerneck 8.64516 5.75149 1.69506
upperneck -10.9295 6.78832 -12.3165
head -4.18557 4.12756 -4.48025
rclavicle -8.74653e-015 1.59028e-015
rhumerus -16.3845 -17.2772 -86.5363
rradius 70.4475
rwrist 2.108
rhand -28.7752 19.7521
rfingers 7.12502
rthumb -2.13464 -10.2169
lclavicle -8.74653e-015 1.59028e-015
lhumerus -11.7804 -4.65625 84.6272
lradius 59.1992
lwrist -20.0485
lhand -48.905 -19.2538
lfingers 7.12502
lthumb -21.5378 9.56867
rfemur -28.9464 -5.46319 10.6118
rtibia 54.5454
rfoot -16.8737 15.7961
rtoes -12.9536
lfemur 5.27737 3.59296 -8.28026
ltibia 56.7783
lfoot 2.46835 9.72707
ltoes -18.3226
248
root -7.01694 17.8237 10.1273 172.586 51.8671 -543.987
lowerback 7.00145 -5.41971 7.09192
upperback 18.139 -5.27075 0.861741
thorax 15.7666 -0.685975 -2.94519
lowerneck 8.55519 5.77947 1.6705
upperneck -10.9299 6.81889 -12.4259
head -4.1652 4.15052 -4.50793
rclavicle 3.97569e-014 5.1684e-014
rhumerus -16.4411 -17.3235 -86.4722
rradius 70.3499
rwrist 2.08287
rhand -28.7779 19.8348
rfingers 7.12502
rthumb -2.13725 -10.1343
lclavicle 3.97569e-014 5.1684e-014
lhumerus -12.0761 -4.44579 84.5435
lradius 59.1628
lwrist -20.0645
lhand -48.9475 -19.2417
lfingers 7.12502
lthumb -21.5786 9.57609
rfemur -28.5667 -5.40386 10.7783
rtibia 54.543
rfoot -17.2873 15.5973
rtoes -13.0472
lfemur 4.17475 3.58708 -8.13301
ltibia 58.6099
lfoot 3.51818 10.059
ltoes -18.9945
249
root -6.93123 17.8345 10.1223 172.588 51.6985 -543.943
lowerback 7.16118 -5.4041 7.13602
upperback 18.1401 -5.22149 0.879256
thorax 15.6711 -0.657114 -2.93583
lowerneck 8.4564 5.79524 1.65526
upperneck -10.9178 6.83541 -12.5382
head -4.14008 4.16571 -4.53652
rclavicle -2.22639e-014 2.54444e-014
rhumerus -16.5061 -17.3672 -86.3857
rradius 70.2447
rwrist 2.07742
rhand -28.8083 19.9169
rfingers 7.12502
rthumb -2.16654 -10.0519
lclavicle -2.22639e-014 2.54444e-014
lhumerus -12.4033 -4.26704 84.4639
lradius 59.1621
lwrist -20.0846
lhand -49.0199 -19.2374
lfingers 7.12502
lthumb -21.6481 9.57235
rfemur -28.2093 -5.3761 10.9444
rtibia 54.5317
rfoot -17.6735 15.3746
rtoes -13.2207
lfemur 3.01765 3.63283 -7.98881
ltibia 60.4712
lfoot 4.21571 10.3107
ltoes -18.8841
250
root -6.84844 17.8446 10.1179 172.554 51.5341 -543.925
lowerback 7.3339 -5.38584 7.1656
upperback 18.1492 -5.16342 0.873282
thorax 15.5778 -0.622772 -2.94412
lowerneck 8.35081 5.81488 1.65896
upperneck -10.9316 6.85943 -12.6306
head -4.12093 4.18311 -4.5629
rclavicle 5.24792e-014 -2.22639e-014
rhumerus -16.4982 -17.4167 -86.3319
rradius 70.08
rwrist 2.07951
rhand -28.7868 20.0311
rfingers 7.12502
rthumb -2.14582 -9.93788
lclavicle 5.24792e-014 -2.22639e-014
lhumerus -12.7143 -4.0779 84.3473
lradius 59.1497
lwrist -20.1028
lhand -49.0624 -19.2591
lfingers 7.12502
lthumb -21.6889 9.546
rfemur -27.8413 -5.35855 11.086
rtibia 54.5119
rfoot -18.0331 15.1827
rtoes -13.3591
lfemur 1.84795 3.70638 -7.88003
ltibia 62.3402
lfoot 4.63464 10.4066
ltoes -18.7648
251
root -6.76849 17.8549 10.1134 172.558 51.3734 -543.853
lowerback 7.51477 -5.37083 7.22259
upperback 18.1516 -5.11127 0.890023
thorax 15.4707 -0.590558 -2.94166
lowerneck 8.20816 5.83054 1.63428
upperneck -10.8879 6.88086 -12.7153
head -4.07977 4.19684 -4.57858
rclavicle -5.96354e-014 5.24792e-014
rhumerus -16.4902 -17.4311 -86.2261
rradius 69.9245
rwrist 2.07511
rhand -28.7287 20.1297
rfingers 7.12502
rthumb -2.08969 -9.83981
lclavicle -5.96354e-014 5.24792e-014
lhumerus -13.0324 -3.85107 84.2892
lradius 59.138
lwrist -20.1342
lhand -49.1283 -19.2268
lfingers 7.12502
lthumb -21.7522 9.57093
rfemur -27.4735 -5.34442 11.2575
rtibia 54.4764
rfoot -18.3447 15.0144
rtoes -13.2987
lfemur 0.671372 3.82811 -7.72588
ltibia 64.2042
lfoot 4.79676 10.3705
ltoes -18.2661
252
root -6.69072 17.8655 10.1083 172.517 51.1945 -543.831
lowerback 7.68751 -5.34382 7.2904
upperback 18.1527 -5.04067 0.864035
thorax 15.3642 -0.543872 -2.9934
lowerneck 8.07241 5.82399 1.72491
upperneck -10.8369 6.88563 -12.7952
head -4.03417 4.19622 -4.61036
rclavicle 1.98785e-014 1.35174e-014
rhumerus -16.4898 -17.5093 -86.1596
rradius 69.7783
rwrist 2.07355
rhand -28.6817 20.2562
rfingers 7.12502
rthumb -2.04429 -9.71371
lclavicle 1.98785e-014 1.35174e-014
lhumerus -13.3493 -3.69201 84.17
lradius 59.1171
lwrist -20.1239
lhand -49.181 -19.2944
lfingers 7.12502
lthumb -21.8028 9.49749
rfemur -27.0957 -5.35783 11.3886
rtibia 54.4351
rfoot -18.6799 14.8385
rtoes -13.4319
lfemur -0.518952 3.97371 -7.61521
ltibia 66.055
lfoot 4.77091 10.1952
ltoes -18.3258
253
root -6.61428 17.8763 10.1024 172.517 51.0508 -543.764
lowerback 7.84067 -5.30812 7.34907
upperback 18.1531 -4.96472 0.882806
thorax 15.2756 -0.499699 -2.99128
lowerneck 7.95168 5.83334 1.71473
upperneck -10.8087 6.90027 -12.8586
head -4.00211 4.20541 -4.62288
rclavicle -2.38542e-014 -8.74653e-015
rhumerus -16.4817 -17.5264 -85.9893
rradius 69.6265
rwrist 2.06821
rhand -28.5529 20.3816
rfingers 7.12502
rthumb -1.9199 -9.58952
lclavicle -2.38542e-014 -8.74653e-015
lhumerus -13.668 -3.49112 84.1383
lradius 59.1005
lwrist -20.0944
lhand -49.2143 -19.3538
lfingers 7.12502
lthumb -21.8349 9.43435
rfemur -26.7173 -5.3711 11.5486
rtibia 54.3688
rfoot -18.9661 14.706
rtoes -13.441
lfemur -1.70774 4.15034 -7.49077
ltibia 67.8844
lfoot 4.5858 9.92246
ltoes -18.5692
254
root -6.53973 17.8877 10.0963 172.483 50.8747 -543.719
lowerback 7.98526 -5.27072 7.4521
upperback 18.1633 -4.88078 0.839766
thorax 15.1976 -0.437808 -3.08309
lowerneck 7.83334 5.81958 1.84568
upperneck -10.788 6.89748 -12.9286
head -3.96787 4.20005 -4.65957
rclavicle 3.4191e-014 -2.38542e-014
rhumerus -16.4594 -17.61 -85.907
rradius 69.4883
rwrist 2.06527
rhand -28.4311 20.4669
rfingers 7.12502
rthumb -1.80225 -9.50521
lclavicle 3.4191e-014 -2.38542e-014
lhumerus -13.9511 -3.39049 83.9989
lradius 59.0818
lwrist -20.0579
lhand -49.2232 -19.3069
lfingers 7.12502
lthumb -21.8433 9.48029
rfemur -26.3253 -5.42984 11.6862
rtibia 54.2946
rfoot -19.2532 14.5578
rtoes -13.5899
lfemur -2.92064 4.36539 -7.386
ltibia 69.6966
lfoot 4.22176 9.53754
ltoes -18.9514
255
root -6.46633 17.9003 10.0903 172.452 50.7322 -543.68
lowerback 8.10915 -5.23913 7.50339
upperback 18.1915 -4.80594 0.805135
thorax 15.1599 -0.385412 -3.13908
lowerneck 7.64495 5.83133 1.9617
upperneck -10.7405 6.93011 -13.0144
head -3.91088 4.2112 -4.69615
rclavicle -2.70347e-014 7.23576e-014
rhumerus -16.3559 -17.5913 -85.8362
rradius 69.3339
rwrist 2.05037
rhand -28.2836 20.5542
rfingers 7.12502
rthumb -1.65985 -9.4191
lclavicle -2.70347e-014 7.23576e-014
lhumerus -14.1965 -3.15273 83.897
lradius 59.0523
lwrist -20.0235
lhand -49.1962 -19.4336
lfingers 7.12502
lthumb -21.8174 9.35656
rfemur -25.9306 -5.45714 11.8212
rtibia 54.1944
rfoot -19.5088 14.4361
rtoes -13.5811
lfemur -4.1527 4.67775 -7.2855
ltibia 71.4915
lfoot 3.6594 9.06706
ltoes -19.5325
